<?xml version="1.0" encoding="utf-8"?>
<!-- Generator: Adobe Illustrator 21.1.0, SVG Export Plug-In . SVG Version: 6.00 Build 0)  -->
<svg version="1.1" xmlns="http://www.w3.org/2000/svg" xmlns:xlink="http://www.w3.org/1999/xlink" x="0px" y="0px"
	 viewBox="0 0 858.1 858.1" style="enable-background:new 0 0 858.1 858.1;" xml:space="preserve">
<style type="text/css">
	.st0{fill:#A9D7F3;}
	.st1{fill:#FFFFFF;}
	.st2{fill:#E7F0F8;}
	.st3{fill:#F7C108;}
	.st4{fill:#26A4FB;}
	.st5{fill:#2300B1;}
	.st6{fill:#8769B8;}
	.st7{fill:#D0EDFC;}
	.st8{fill:#150077;}
	.st9{fill:#F7FAFF;}
	.st10{fill:#B8EBF4;}
	.st11{fill:#7ADCFB;}
	.st12{fill:#F8C208;}
	.st13{fill:#8C66B9;}
	.st14{fill:#FFB1DF;}
	.st15{fill:#FF6FCA;}
	.st16{fill:#FF4D76;}
	.st17{fill:#A1DCFF;}
	.st18{fill:#2E7DFB;}
	.st19{fill:#23AFFC;}
	.st20{fill:#F6C50A;}
	.st21{fill:#FFDE17;}
	.st22{fill:#3400B1;}
	.st23{fill:#5AB2F9;}
	.st24{fill:#DBF4F9;}
	.st25{fill:#34ACFC;}
	.st26{fill:#98E3F4;}
	.st27{fill:#F183C1;}
	.st28{fill:#4377FB;}
	.st29{fill:#EE80BE;}
	.st30{opacity:0.53;}
	.st31{fill:#FFDA73;}
	.st32{fill:#210077;}
	.st33{fill:#38A0FB;}
	.st34{fill:#E8F1F9;}
	.st35{fill:#EEF3FA;}
	.st36{fill:#CCE0FF;}
	.st37{fill:#F2F9FC;}
	.st38{fill:#F955AF;}
	.st39{fill:#FF90C8;}
	.st40{fill:#8869B9;}
	.st41{fill:#FEA700;}
	.st42{clip-path:url(#SVGID_4_);}
	.st43{opacity:0.57;}
	.st44{clip-path:url(#SVGID_6_);}
	.st45{clip-path:url(#SVGID_8_);}
	.st46{fill:#86A2F8;}
	.st47{fill:#FFACEA;}
	.st48{fill:#EF80BF;}
	.st49{fill:#F774BC;}
	.st50{fill:#15203D;}
	.st51{fill:#FFFEFE;}
	.st52{fill:#A2DDFF;}
	.st53{fill:#EBF6FC;}
	.st54{fill:#E2FBFF;}
	.st55{fill:#CAD9FC;}
	.st56{fill:#9DE4F4;}
	.st57{fill:#C4E6FF;}
	.st58{fill:#EBF7FF;}
	.st59{fill:#BDECFD;}
	.st60{fill:#FFB6E4;}
	.st61{fill:#FDC401;}
	.st62{fill:#CCD8FC;}
	.st63{fill:#E58200;}
</style>
<g id="Layer_1">
</g>
<g id="Layer_2">
	<g>
		<path class="st0" d="M220.2,114.6c-53.5,33.6-31.8,35.6-88.4,68.2S9.9,218.7,18.7,276.2S123,345.8,77,423.7s-99,157.2-12.4,270.5
			s194.4,49.5,247.4,49.5s97.2,28.3,148.4,26.5c51.2-1.8,83.1-38.9,125.5-37.1s149.3,83.1,229.7-8.8s-61.9-263.5-81.3-373.9
			C715,240,617.8,220.1,593.1,162.9c-24.7-57.2-58.3-89.4-134.3-68.9S253.3,93.8,220.2,114.6z"/>
		<path class="st0" d="M630.6,114.8c17,55.5,48.4,109.3,84.5,108.6c36-0.6-4.3-165.2-72.3-147.2C621,84.6,630.6,114.8,630.6,114.8z"
			/>
	</g>
	<g>
		<g>
			<g>
				<g>
					<g>
						<g>
							<path class="st55" d="M410.1,250.7c-11.5-6.6-26.9-12.1-28.3-25.3c-1-9.6,6.6-17.9,9.4-27.1c5.7-19-11.5-39-31-42.6
								c-6.7-1.2-13.7-1.1-20.3-3.1c-31.2-9.6-32.8-59.1-62.9-71.9c-2.6-1.1-5.6-1.9-8.4-1.3c-2.2,0.5-4,1.7-5.4,3.4
								c8,19,20.1,35.5,33.5,51c24.4,28,52.6,54.3,62.1,91.6c5.4,21.2,7.9,42.4,18.7,61.8c5.2,9.3,10.9,18.9,17.5,27.3
								c1.7,2.2,3.6,4.3,5.4,6.3c14.4-3.4,27.4-11,31.8-24.6C437.8,278.8,425.9,259.8,410.1,250.7z"/>
						</g>
					</g>
				</g>
			</g>
			<g>
				<g>
					<g>
						<g>
							<path class="st55" d="M370.2,283.9c-9.7-19.5-11.6-40.9-17.4-61.6c-5.7-20.2-17.7-37.3-31.1-53.1
								c-22.2-26.4-47.6-50.1-62-81.9c-1,2.7-1.5,5.7-1.7,8.5c-0.9,19.5,6.9,39.2,21,52.9c8.2,7.9,18.9,14.8,21.5,25.9
								c4.7,19.6-19,40.4-9,58c9,15.7,38,12.9,42.9,30.3c3,10.7-5.5,24.2,2.1,32.3c0.5,0.6,1.1,1.1,1.8,1.5c2.4,10,9.3,19,18.8,23
								c6.7,2.8,14.2,3.3,21.5,3.3c5.3,0,10.8-0.4,16.3-1.4c-2.1-2.4-4.2-4.9-6.1-7.5C381.8,304.7,375.4,294.3,370.2,283.9z"/>
						</g>
					</g>
				</g>
			</g>
		</g>
		<g>
			<g>
				<g>
					<g>
						<g>
							<path class="st56" d="M425.8,542.6c-8.1-14.4-16.4-29.1-26-43.1c1.2-10.3,7.3-26.2,13.4-35.7c15.2-23.6,30.3-46.4,28.3-72.1
								c-0.1-1.2-0.2-2.4-0.4-3.6c-1.8-14.4-7.4-27.9-13.1-41.3c2.4,15.1,5.1,30.7-0.9,46.5c-5.8,15.3-19.1,28.7-26.9,43.6
								c-6.7,12.9-12.2,37.9-6.6,53.7c-1.8-2.4-3.6-4.8-5.5-7.1c-3.8-4.7-7.8-9.3-11.9-13.9c-2.4-9.9-1.3-20.3,1.6-30.8
								c6.4-23.8,21.4-48.5,24.7-71.2c2.6-18.2-0.9-36.9-13.9-50.4c8.1,24.7-13.7,52.6-22.3,77.3c-8.1,23.3-1.5,50.7,8,73.1
								c-8.2-8.8-17-17.3-25.9-25.6l-0.8-2.6c0-1.6-0.1-3.2-0.2-4.8c2.2-5.9-1.4-14.4-1.2-20.3c0.3-9.7,2.6-19.5,5.6-29.1
								c5.7-18.2,14.1-36.2,17.5-54.6c3.4-18.3,1.2-37.7-12.6-50.9c0.9,22.6-12,45.4-18.7,68.3c-3.5,11.9-5.3,23.9-5.3,35.8
								c-1.6,13.5-0.3,26.7,5.7,38.7c0.4,0.7,0.7,1.5,1.1,2.2c1.8,5.1,4,10.1,6.4,15c-2-1.9-4.1-3.8-6.1-5.7
								c-12.4-11.6-25.1-23.3-37.9-35c-1.4-6.7-1.7-13.7-0.8-20.7c0.6-4.9,2.3-10,4.8-15c16.5-34.4,43.3-60.5,26.8-96.2
								c1.5,14.1-3.8,29.3-14.7,42c-5.8,6.7-13,12.7-18.3,19.7c-12.5,16.2-17.9,44.4-7.1,59.2c2.5,3.4,5.8,6.4,8,9.9
								c-16.6-15.1-33.6-30.1-51.1-44.5c-2.4-6.9-3.9-14.2-3.1-21.6c1-9,5.3-17.9,9.6-26.6c6.6-13.7,13.2-27.7,14.9-41.8
								c1.7-14.1-1.9-28.7-13.6-38c3.8,15.4-8.5,31.7-15.6,47.5c-10.4,23.1-10,48.1,1.2,68.7c2.1,3.9,4.4,7.6,6.3,11.5
								c-0.2-0.2-0.4-0.3-0.6-0.5c-2.5-2.1-5-4.1-7.6-6.2c-6.3-5.2-12.8-10.4-19.1-15.8c-2-4.3-3.3-8.8-4.2-13.4l1.7,5.3
								c-5.3-23.6,7.2-51.4,14.2-74.4c3.4-11.2,5.9-29.8-0.8-40.6c-3.3-7.9-8.7-15.1-15.9-20.9c6.3,18.6-2.6,39.6-9.1,59.6
								c-2.1,6.6-3.9,13.5-4.8,20.2c-5,22.4,4.9,43.5,17.2,62.8c-12.2-10.4-24.1-21.1-34.5-32.7c-6-14.4-5.9-32.5-3.2-47.8
								c2.3-12.9,7.7-25.7,9.1-38.6c1.3-11.9-0.9-23.6-6.2-34c-2.4,21.6-20,42.2-23,63.3c-2.6,18.6,9.7,37.6,20.3,53.8
								c-18.9-21.8-26.2-38-34.7-56.7c-1.8-4-3.7-8.1-5.7-12.4c-5.8-12.3-11.3-24.2-15.9-36c-0.9-4.1-1.4-8.3-1.4-12.5
								c0-5.4,0.8-10.9,1.3-16.3c2.4-25.8-3.3-51.3-16.4-73.4c1.1,12.1-3.9,24.6-5.7,36.9c-4.7,31.4,11.2,60,28.5,85.3
								c2.6,5.8,5.2,11.5,7.9,17c1,2.1,1.9,4.1,2.8,6c-4.9-8.1-15.2-14.3-24.4-19.3c-13.2-7.3-27.8-13.2-40.4-21.2
								c-10.9-6.9-20.1-15.3-27.3-24.8c2.4,7.1,4.8,14.1,7.1,21.2c3.3,9.8,6.9,20,15.6,26.9c17,13.6,47.4,12.2,69.8,18.3
								c0.8,1.8,1.6,3.5,2.4,5.2c8.6,19.1,16.1,35.6,35.8,58.1c0.5,0.6,1.1,1.2,1.7,1.9c-10.2-9.2-26.4-13.5-36.9-23.1
								c-7-6.4-12.7-14-20.7-19.4c-10.2-6.8-22.5-8.3-35.5-8.7c-9.1-0.3-18.4,1.2-27.6,1.5c-4.3,0.2-8.5,0.1-12.7-0.5
								c4,4.7,11.2,6.2,18.1,7.1c12.2,1.6,23.1,5,32.4,11.8c11.7,8.5,18.6,15.4,33.9,18.4c16.4,3.2,34.6,7.4,49.7,13.5
								c12,13.3,25.9,25.5,40,37.3c0.6,0.8,1.1,1.7,1.7,2.5c-0.5-0.8-1-1.6-1.5-2.3c5.1,4.2,10.2,8.4,15.3,12.6
								c2.1,1.7,4.2,3.5,6.3,5.2c-9.4-6.1-22-10.3-35-10.7c-2.7-0.1-5.3,0.2-8,0.7c-8.7,1.5-17.4,5.3-26.1,7.1
								c-28.6,5.7-58.1,5-84-2.3c15,17.7,42.6,26.3,71.3,21.8c14.2-2.2,23.8-6.8,37-11.7c9.8-3.6,35.7-10.3,44.8-4.9
								c0.4,0.3,0.8,0.6,1.1,0.9c4.2,3.4,8.3,6.9,12.4,10.4c-8.6-2.9-33.7,4.2-39,5.6c-18.2,4.9-36,11.6-54.5,15.3
								c-18.5,3.6-38.6,3.8-53.1-3.8c18.9,18,52.3,28,82.6,17.7c12.3-4.2,22.9-11.2,34.4-16.9c6.7-3.3,33.3-9.8,32.4-15.1
								c0-0.1-0.1-0.3-0.1-0.4c23.9,20.4,47,41.7,69.4,62.6c-10.9-6.3-25.2-9.5-39.2-9.2c-50,1-96.6,42.8-145.7,39.1
								c20.5,6.8,45.8,3.2,68.7-3.3c22.9-6.5,45-15.8,68.4-20.4c20.6-4.1,40.6-3.4,58,3.4c2.3,2.2,4.7,4.4,7,6.6
								c0.2,0.3,0.4,0.6,0.5,0.9l-0.2-0.6c9.4,8.9,18.8,18.1,27.4,27.7c0.9,2,1.9,3.9,2.8,5.8c-0.9-1.7-1.6-3.4-2.2-5.1
								c3.1,3.5,6.2,7.1,9.1,10.7c2.8,3.5,5.5,7.1,8.1,10.7c-21.9-6.6-39.6-13.1-65.9-8.9c-26.4,4.2-51.3,16.1-72.9,30.2
								c-18.1,11.9-38.3,26.7-59.8,24.6c17.9,9.1,44.1,3.9,64.9-5.5c20.8-9.4,39.1-22.7,60.3-31.2c23.5-9.5,49.8-12.6,73.6-9
								c11,15.4,20.2,31.9,29.2,47.9c20.5,36.4,41.7,74,53.6,114.1l1.9-0.7C467.6,616.8,446.4,579,425.8,542.6z"/>
						</g>
					</g>
				</g>
			</g>
			<g>
				<g>
					<g>
						<g>
							<path class="st56" d="M275.9,297.1c-17.5,23-23.4,52.5-6.6,72.1c1-15.2,10.8-28.3,16.4-42.8c3.1-8.1,8.1-14.6,13-21.5
								c2.2-3.1,4.4-6.3,6.4-9.8c5.3-9.1,5.1-19.2,1.3-27.8c-3.7-8.6-10.8-15.8-18.8-22c3.2,10.2,6.4,21,2.1,31.7
								C286.9,284.1,280.9,290.5,275.9,297.1z"/>
						</g>
					</g>
				</g>
			</g>
			<g>
				<g>
					<g>
						<g>
							<path class="st56" d="M219.3,322.2c0.6,2.6,1.4,5.2,2.5,7.8L219.3,322.2z"/>
						</g>
					</g>
				</g>
			</g>
			<g>
				<g>
					<g>
						<g>
							<path class="st56" d="M186.4,326.3c11.7,3.2,22.6,9.3,35.3,7.7c-9.3-9.9-24.1-16.9-36.3-23.8c-5.3-3-10.8-5.9-17-7.1
								c-5.1-1-10.5-0.7-15.7-0.4c-1.6,0.1-3.2,0.2-4.8,0.3c-15.6,0.9-31.5,2.4-47.1,2.4c-8.8,0-29.7-6.9-36.2-5.6
								c9,7.3,18.9,13.8,30.2,17.6C123.4,326.9,157.2,318.2,186.4,326.3z"/>
						</g>
					</g>
				</g>
			</g>
			<g>
				<g>
					<g>
						<g>
							<path class="st56" d="M206.4,430.6c15.7-4.9,29.3-14,44.2-20.8c7.9-3.7,16.6-6.7,25.4-7.9c5.7-0.8,15.4,0.7,19.2-3.9
								c-5.1-2.8-10.7-5.9-16.4-8c-8.8-3.4-18.4-2.7-28.2-0.1c-16.3,4.4-32.9,14.2-46.9,20c-9.7,4-49,23.2-58.2,15.2
								C158.5,436.5,187.3,436.5,206.4,430.6z"/>
						</g>
					</g>
				</g>
			</g>
			<g>
				<g>
					<g>
						<g>
							<path class="st56" d="M271.3,485.9c15.1-3.7,28.3-11.4,43.2-14.1c7.4-1.4,14.9-2.7,22.3-3.1c6.7-0.4,13.4,0,19.7,1.1
								c6.5,1.1,13.6,5.2,19.8,5.1c-8.2-13.1-31.6-25.3-51.1-25.7c-5-0.1-10,0.4-15.1,1.2c-1.9,0.3-3.8,0.6-5.7,0.9
								c-18.3,3-36.7,6.7-54,13.3c-24.2,9.2-48.1,23.8-74.3,18.2c9.5,8.3,24.8,11.1,39.8,11.1C234.4,493.9,253.1,490.4,271.3,485.9z
								"/>
						</g>
					</g>
				</g>
			</g>
			<g>
				<g>
					<g>
						<g>
							<path class="st56" d="M153.2,194.1c5.8-20.1,10.8-42.8-3.3-58c5.6,10.1-1.3,22.7-5.4,34.2c-8.1,23-4.8,46.7,4.6,67.3
								C143.8,224.2,149.1,208.4,153.2,194.1z"/>
						</g>
					</g>
				</g>
			</g>
		</g>
		<g>
			<g>
				<g>
					<g>
						<g>
							<path class="st57" d="M566.1,316.1c3.8-6.4,6.3-13.4,9-20.3c4.8-12.5,10.4-23.6,19-34c4.8-5.8,10.2-11.2,14.4-17.4
								c3.5-5.2,4.1-11.6,8-16.7c4.4-5.8,8.9-11.1,12.7-17.4c3.7-6.2,7.5-12.3,10.8-18.7c3.5-6.6,7.1-12.9,11.5-18.9
								c4-5.4,8.1-10.7,11.9-16.3c8.1-12.2,11.7-24.9,14.4-39.1c2.5-13.4,5.4-26.2,12.1-38.2c1-1.7,2-3.5,2.9-5.3
								c-6.4-2-12.9,3.7-17.2,9.2c-9.4,12.1-17.2,25.4-23.2,39.5c-2,4.7-3.9,9.5-7.3,13.2c-7.1,7.7-18.8,8.8-27.6,14.4
								c-19.7,12.6-18.6,40.1-24,60.1c-7.5,27.5-25.3,25.7-42.2,44.3c-13.7,15.1-18.1,45.6-12.1,64.9c2.6,8.2,7.2,14.2,13.1,18
								c0.7-1.4,1.5-2.9,2.2-4.3C557.9,326.9,562.6,322,566.1,316.1z"/>
						</g>
					</g>
				</g>
			</g>
			<g>
				<g>
					<g>
						<g>
							<path class="st57" d="M680.9,125.6c-2.8,13.5-7.8,25-15.7,36.3c-3.9,5.5-8.1,10.8-12,16.2c-4.4,6.1-7.6,12.9-11.2,19.5
								c-3.4,6.2-7.2,12.4-10.9,18.4c-3.7,5.9-9.1,10.8-12.6,16.8c-1.7,2.9-2.4,6.3-3.6,9.4c-1.1,2.7-2.7,5-4.5,7.3
								c-4.3,5.5-9,10.7-13.5,16.1c-9.5,11.6-14.5,24.5-20,38.2c-2.5,6.2-5,12.5-9,17.9c-4.2,5.8-8,11.2-11.3,17.7c0,0,0,0.1,0,0.1
								c9.1,4.1,20.3,3.8,31.3-0.7c24.1-9.9,41.3-36.2,45-61.3c1.7-11,1.3-23,7.7-32.1c4-5.8,10.3-9.7,16.1-13.8
								c15.2-11,28.7-26.7,30.3-45.4c1.1-12.5-3.2-25.4,0-37.5c2.6-10,9.8-18.1,14-27.5c5.4-12.3,5.4-26.8-0.2-39
								c-1-2.1-2.2-4.2-3.8-5.9c-0.8,1.5-1.6,3-2.5,4.5C686.4,94.8,684.2,109.9,680.9,125.6z"/>
						</g>
					</g>
				</g>
			</g>
			<g>
				<g>
					<g>
						<g>
							<path class="st56" d="M780.5,238.9c-3.1,4.7-7,8.6-10.4,12.9c-3.7,4.7-6.5,10.1-9.7,15.1c-3.4,5.2-7.1,10.1-10.8,15
								c-6.3,8.3-13.1,16.4-21,23.2c-7.6,6.6-16.2,12-23.3,19.3c-8,8.2-13.5,19.2-18.5,29.4c-5,10.2-8.4,20.7-12.3,31.2
								c-3.8,10.1-10.1,18.8-15.5,28.1c-5.3,9.1-10.6,16.6-19.2,22.9c-4.1,3-8,5.8-11.3,9.7c-3.5,4.2-6.9,8.4-10.6,12.4
								c-7.3,8.1-15.7,15.1-22.9,23.3c-13.7,15.7-23.8,34.2-37.3,50c-7.1,8.3-15.5,15-21.6,24c-4.7,7-8.8,14.4-13.6,21.4
								c19.8,13.8,49.9,8.7,72.3-3.2c18.2-9.7,35-23.6,43.2-42.5c4.7-10.9,6.4-23.2,12.9-33.2c16.6-25.6,54.5-24.3,80.4-40.5
								c24.5-15.4,36-46.5,33.4-75.3c-2-23.2-11.9-46.5-6-69c4.2-16.2,15.9-29.2,26.7-42c10.8-12.8,21.3-27.2,22.4-43.9
								c0.5-8.3-2.3-17.1-7.4-23.6c-3.9,6.9-7.8,13.7-11.5,20.7C786.3,229.2,783.7,234.2,780.5,238.9z"/>
						</g>
					</g>
				</g>
			</g>
			<g>
				<g>
					<g>
						<g>
							<path class="st56" d="M536.3,544.6c6.8-8.3,15.1-15.1,21.8-23.6c12.7-16.2,22.8-34.3,37.1-49.2c7.9-8.2,16.3-15.8,23.7-24.4
								c3.5-4.1,6.6-8.4,10.7-11.8c3.6-3,7.7-5.5,11.3-8.5c8.6-7.3,13-18.4,19-27.8c3.2-5,6.2-9.8,8.4-15.4c1.8-4.8,3.3-9.8,5-14.6
								c3.8-10.4,8.7-20.4,14.1-30.1c5.3-9.4,11-17.8,19.3-24.9c7.9-6.7,16.5-12.4,23.8-19.8c8.1-8.1,14.9-17.3,21.5-26.6
								c5.9-8.2,10.4-17.1,17.2-24.7c6.9-7.8,11.5-16.9,16.3-26c3.4-6.4,7-12.6,10.6-18.9c-4.5-3.6-9.9-5.7-15.8-5.2
								c-6.9,0.5-13.2,4.1-19.1,7.7c-20.6,12.2-42.2,25.5-52.9,46.9c-10.6,21.2-10.2,49.4-29.2,63.6c-19.5,14.6-49.2,5.9-69.7,19.1
								c-34.4,22.2-16.2,84.6-49.5,108.4c-6.8,4.9-15.1,7.4-22.4,11.5c-25,13.8-34.6,47.7-24.9,73.9c-7.7,14.6-7.6,33.8,3.5,46.3
								c0.6,0.7,1.2,1.3,1.9,2c0.2-0.3,0.5-0.6,0.7-0.9C524.7,562.5,529.6,552.9,536.3,544.6z"/>
						</g>
					</g>
				</g>
			</g>
		</g>
		<g>
			<g>
				<g id="XMLID_16_">
					<g>
						<g>
							<g>
								<g>
									<g>
										<polygon class="st4" points="369.2,507.1 431,502.8 431,759 435.1,759 435.1,497.9 366.3,502.7 284,759 288.4,759 
																					"/>
									</g>
								</g>
							</g>
						</g>
						<g>
							<g>
								<g>
									<g>
										<polygon class="st4" points="495.2,540.7 491.2,541.6 528.3,759 532.5,759 										"/>
									</g>
								</g>
							</g>
						</g>
					</g>
					<g>
						<g>
							<g>
								<g>
									<path class="st18" d="M528.6,561.2h-204c-3.4,0-5.6-3-4.9-6.7L373.5,255c0.7-3.7,4-6.7,7.3-6.7h204c3.4,0,5.6,3,4.9,6.7
										l-53.8,299.5C535.2,558.2,531.9,561.2,528.6,561.2z"/>
								</g>
							</g>
						</g>
					</g>
					<g>
						<g>
							<g>
								<g>
									<path class="st58" d="M521.7,558.2h-204c-3.4,0-5.6-3-4.9-6.7L366.6,252c0.7-3.7,4-6.7,7.3-6.7h204c3.4,0,5.6,3,4.9,6.7
										L529,551.5C528.3,555.2,525,558.2,521.7,558.2z"/>
								</g>
							</g>
						</g>
					</g>
					<g>
						<g>
							<g>
								<g>
									<g>
										<rect x="452.8" y="304.2" class="st4" width="84.6" height="4.5"/>
									</g>
								</g>
							</g>
						</g>
					</g>
					<g>
						<g>
							<g>
								<g>
									<g>
										<rect x="396.1" y="288.4" class="st4" width="140.7" height="5.6"/>
									</g>
								</g>
							</g>
						</g>
					</g>
					<g>
						<g>
							<g>
								<g>
									<g>
										<rect x="395.5" y="273.1" class="st4" width="140.7" height="5.6"/>
									</g>
								</g>
							</g>
						</g>
					</g>
				</g>
				<g id="XMLID_5_">
					<g>
						<g>
							<g>
								<g>
									<g>
										
											<rect x="452.4" y="397.3" transform="matrix(0.2541 -0.9672 0.9672 0.2541 -46.4721 737.0476)" class="st59" width="4.4" height="2.7"/>
									</g>
								</g>
							</g>
						</g>
						<g>
							<g>
								<g>
									<g>
										<path class="st59" d="M441.1,455.4l-2.6-0.7l2.6,0.5L441.1,455.4z M443.2,447.6l-2.6-0.7l2-7.6l2.6,0.7L443.2,447.6z
											 M447.2,432.3l-2.6-0.7l2-7.6l2.6,0.7L447.2,432.3z M451.2,417.1l-2.6-0.7l2-7.6l2.6,0.7L451.2,417.1z"/>
									</g>
								</g>
							</g>
						</g>
						<g>
							<g>
								<g>
									<g>
										
											<rect x="436" y="460" transform="matrix(0.2541 -0.9672 0.9672 0.2541 -119.3494 767.9253)" class="st59" width="4.4" height="2.7"/>
									</g>
								</g>
							</g>
						</g>
					</g>
					<g>
						<g>
							<g>
								<g>
									<g>
										
											<rect x="423.7" y="345.3" transform="matrix(0.2542 -0.9672 0.9672 0.2542 -17.5322 670.451)" class="st59" width="4.4" height="2.7"/>
									</g>
								</g>
							</g>
						</g>
						<g>
							<g>
								<g>
									<g>
										<path class="st59" d="M398.8,455.3l-2.6-0.7l1.2-4.6l2.6,0.7L398.8,455.3z M402.1,443l-2.6-0.7l2-7.8l2.6,0.7L402.1,443z
											 M406.1,427.4l-2.6-0.7l2-7.8l2.6,0.7L406.1,427.4z M410.2,411.9l-2.6-0.7l2-7.8l2.6,0.7L410.2,411.9z M414.3,396.4
											l-2.6-0.7l2-7.8l2.6,0.7L414.3,396.4z M418.3,380.8l-2.6-0.7l2-7.8l2.6,0.7L418.3,380.8z M422.4,365.3l-2.6-0.7l2-7.8
											l2.6,0.7L422.4,365.3z"/>
									</g>
								</g>
							</g>
						</g>
						<g>
							<g>
								<g>
									<g>
										
											<rect x="393.7" y="460" transform="matrix(0.2541 -0.9672 0.9672 0.2541 -150.9106 727.0026)" class="st59" width="4.4" height="2.7"/>
									</g>
								</g>
							</g>
						</g>
					</g>
					<g>
						<g>
							<g>
								<g>
									<g>
										
											<rect x="506.7" y="414.3" transform="matrix(0.2541 -0.9672 0.9672 0.2541 -22.4287 802.2225)" class="st59" width="4.4" height="2.7"/>
									</g>
								</g>
							</g>
						</g>
						<g>
							<g>
								<g>
									<g>
										<path class="st59" d="M501.5,449.1l-2.6-0.7l2-7.6l2.6,0.7L501.5,449.1z M505.5,434l-2.6-0.7l2-7.6l2.6,0.7L505.5,434z"/>
									</g>
								</g>
							</g>
						</g>
						<g>
							<g>
								<g>
									<g>
										
											<rect x="494.7" y="460" transform="matrix(0.2542 -0.9672 0.9672 0.2542 -75.5758 824.6729)" class="st59" width="4.4" height="2.7"/>
									</g>
								</g>
							</g>
						</g>
					</g>
					<g>
						<g>
							<g>
								<g>
									<polygon class="st4" points="380.8,328.5 378.2,325.5 388.3,316.7 394,325.7 390.6,327.8 387.4,322.8 									"/>
								</g>
							</g>
						</g>
					</g>
					<g>
						<g>
							<g>
								<g>
									<polygon class="st60" points="508.8,417.1 489.8,379.9 453.9,402.3 427.3,344 372.6,385 370.2,381.8 428.8,337.8 
										455.6,396.5 491.4,374.2 510.3,411.3 534.4,395.6 536.6,398.9 									"/>
								</g>
							</g>
						</g>
					</g>
					<g>
						<g>
							<g>
								<g>
									<polygon class="st4" points="347.7,466.2 385.3,321.3 389.2,322.3 352.9,462.1 518.3,460.6 518.4,464.6 									"/>
								</g>
							</g>
						</g>
					</g>
					<g>
						<g>
							<g>
								<g>
									<polygon class="st4" points="514,470.5 511.4,467.5 518.2,461.6 514.5,455.8 517.9,453.6 523.4,462.4 									"/>
								</g>
							</g>
						</g>
					</g>
				</g>
			</g>
			<g id="XMLID_4_">
				<g>
					<g>
						<g>
							<g>
								<path class="st6" d="M546.4,560.4c-31.7,21.9-67.3,39.8-92,69.1c-24.7,29.2-34.8,75.1-9.9,104.2
									c23.8,27.8,66.7,28,103.9,28.6c69,1,76.7-0.9,110-12.2c33.3-11.3,58.5-40.1,78.2-68.5c12-17.4,19.3-37.5,25.2-57.6
									c6.8-23.2,12.1-47.4,9.8-71.4c-3.9-42.3-42.6-89.7-91-79C631.2,484.3,586.4,532.7,546.4,560.4z"/>
							</g>
						</g>
					</g>
				</g>
				<g>
					<g>
						<g>
							<g>
								<path class="st28" d="M592.9,612c6.5,1,25.8,7.3,28.9-2.4c2.7-8.5-13.3-24.9-18.4-30.2c-22.1-23-50.3-39.4-79.7-51.9
									c-7.5-3.2-15.6-6.2-23.7-5.4c-23.5,2.4-34.6,45.2-40.5,63.3c-9.5,29.3-17.6,59-24.4,89.1c13.1,7.7,30.4-0.8,39.5-13
									c9.1-12.2,13.1-27.4,21.1-40.4c2.1-3.4,4.5-6.6,7.8-8.8c4.3-2.8,9.5-3.5,14.6-3.9C543.4,606.2,567.9,608.3,592.9,612z"/>
							</g>
						</g>
					</g>
				</g>
				<g>
					<g>
						<g>
							<g>
								<g>
									<path class="st5" d="M437.4,666.2v0.2l-24.6,9.3c-3.3,1.3-5.7,4.5-6.2,8.2c-0.1,0.5-0.1,1.1-0.1,1.6v4.2h0v-4.2
										c0-0.6,0-1.1,0.1-1.6h50.9l0,5.8h0l0-5.8l0.1-15.4C450.8,668.1,444.1,667.4,437.4,666.2z"/>
								</g>
							</g>
						</g>
					</g>
					<g>
						<g>
							<g>
								<g>
									<path class="st11" d="M406.6,683.9c-0.1,0.5-0.1,1.1-0.1,1.6v1.8c0,1.3,1.1,2.4,2.4,2.4h48.6l0-5.8H406.6z"/>
								</g>
							</g>
						</g>
					</g>
				</g>
				<g>
					<g>
						<g>
							<g>
								<g>
									<path class="st5" d="M433.4,714.2l-13.6,26.1l-23.4,11.9c-3.4,1-6,3.8-6.7,7.2l52.2-2.1l16.8-42L433.4,714.2z"/>
								</g>
							</g>
						</g>
					</g>
					<g>
						<g>
							<g>
								<g>
									<path class="st11" d="M389.4,761l-0.1,2.5c0,0.7,0.6,1.3,1.3,1.3l49.4-2c0.9,0,1.6-0.7,1.7-1.6l0.2-3.8l-52.2,2.1
										C389.5,760,389.5,760.5,389.4,761z"/>
								</g>
							</g>
						</g>
					</g>
				</g>
				<g>
					<g>
						<g>
							<g>
								<g>
									<path class="st29" d="M652.3,467.8c-0.3,0-0.7,0-1.1,0c-31.1,1.4-48.8,25.3-60.4,51.3c-20,45-30.5,57.8-48.3,74
										c0,0,0.3-0.7,0.1-0.6c-0.8,0.6-1.4,1.3-2.1,2c-0.7,0.8-1.5,1.5-2.3,2.1c5.9,1.3,12,1.8,18.1,1.7c1.7-2.9,4.4-5.2,7.8-5.9
										c6.3-1.2,12.5-2.5,18.5-4.8c1.7-0.6,0.8-0.2,2.3-1c2.2-1.7,4.4-3.3,6.7-5c0.2-0.4,0.3-0.4,0.2-0.1l0.1-0.1
										c2.2-4.8,6.2-8.5,11.2-9.1c3-2.7,5.9-5.6,8.4-8.9c2.6-3.3,7-4.4,11.2-3.8c17.6-24.8,33.6-57.3,36.4-87.1
										c0.1-0.6,0.1-1.2,0.3-1.8C657.3,469.6,654.9,468.6,652.3,467.8z"/>
								</g>
							</g>
						</g>
					</g>
				</g>
				<g>
					<g>
						<g>
							<g>
								<path class="st34" d="M657.3,468.9c-0.1,0.6-0.2,1.2-0.3,1.9c-0.3,3.3-0.8,6.5-1.4,9.7c-1.4,1.6-2.6,3.4-3.4,5.5
									c-5,12.5-12.5,24.2-19.5,35.7c-1.9,3.2-3.9,6.3-6,9.4c-5.6-0.3-11.1-0.6-16.6-1.1c-9.1-0.7-18.2-1.6-27.3-2.8
									c2.3-4.1,4.5-8.2,6.8-12.5c12.7-23.6,30.1-47.9,59.3-49.2c0.4,0,0.7,0,1,0C652.6,466.4,655,467.5,657.3,468.9z"/>
							</g>
						</g>
					</g>
				</g>
				<g>
					<g>
						<g>
							<g>
								<path class="st25" d="M703.4,589.5c-0.8,2.3-1.6,4.8-2.7,7.4c-0.1,0.3-0.3,0.7-0.4,1.1c-0.5,1.3-4.2,8.8-6.8,13.9
									c-0.3,0.6-0.6,1.1-0.8,1.6c-0.3,0.6-0.6,1.2-0.8,1.6c-0.4,0.8-0.7,1.3-0.8,1.5c-0.3,0.5-0.6,1.2-0.9,1.8
									c-1.3,3.1-2.7,7.4-4.3,9.4c-27.2,34.5-87.2,20.4-124.6,23.4c-17.7,1.4-44.9,0.3-44.9,0.3s-31.9,49-40.8,67.1
									c-2.1,4.3-4.3,8.9-8.3,11.6c-4.8,3.3-11.1,3.3-16.9,3c-9.8-0.6-19.5-1.6-29.2-3.2c-1.6-0.3-3.4-0.7-4.2-2
									c-0.8-1.3-0.7-3-0.1-4.4c13.2-28.1,41.1-79.6,64.5-114.8c1.2-1.7,2.4-3.6,4.2-4.6c1.7-0.9,3.7-1.1,5.6-1.3
									c20-1.8,40.7-5.7,60.7-6c1.3,0,2.6,0,4,0c10.7-0.1,21.3,0,32,0.1c6.2,0.1,12.3,0.1,18.5,0.2c2,0,3.9,0,5.9,0.1
									c2.4,0,4.8,0,7.2,0.1c7.2,0.1,14.4,0.1,21.7,0.2c2.1,0,4.3,0,6.4-0.1c11.6-0.4,23.6-1.7,35-1.1l0.4-0.6c0.1,0,0.2,0,0.3,0
									C690.8,596.8,697.7,594.2,703.4,589.5z"/>
							</g>
						</g>
					</g>
				</g>
				<g>
					<g>
						<g>
							<g>
								<path class="st5" d="M700.7,596.9c-0.1,0.3-0.3,0.7-0.4,1.1c-0.5,1.3-4.2,8.8-6.8,13.9c-0.3,0.6-0.6,1.1-0.8,1.6
									c-0.3,0.6-0.6,1.2-0.8,1.6c-0.4,0.8-0.7,1.3-0.8,1.5c-0.3,0.5-0.6,1.2-0.9,1.8c-30.8-3.9-70.5-10.8-70.8-21.1
									c9.3,0,18.7,0.1,28.1,0.1c5.6,0,11.2,0.1,16.7,0.1C676.2,597.6,688.4,597.2,700.7,596.9z"/>
							</g>
						</g>
					</g>
				</g>
				<g>
					<g>
						<g>
							<g>
								<path class="st5" d="M551.9,594.7c-1.3,0.5-2.6,1-3.9,1.5c-0.2,0.1-0.4,0-0.5-0.1c-0.2-0.3-0.4-0.5-0.6-0.8
									c-0.1-0.1-0.1-0.3-0.1-0.4C548.6,594.7,550.2,594.7,551.9,594.7z"/>
							</g>
						</g>
					</g>
				</g>
				<g>
					<g>
						<g>
							<g>
								<path class="st5" d="M729.9,600.9C730.5,600.7,730.3,601.7,729.9,600.9L729.9,600.9z"/>
							</g>
						</g>
					</g>
				</g>
				<g>
					<g>
						<g>
							<g>
								<path class="st34" d="M729.7,494.4c-4.6-9.4-12.3-17-23.9-21.5c-15.7-6.1-30.9-7.3-47.4-7.2c-21.9,0.2-40.2,7.6-46.5,29.9
									c-3.4,12-1.5,23.5-3.3,35.6c-2.4,16.5-8.6,32.5-18.1,46.3c-12.9,18.9,36.8,28.7,47.4,30.7c11.9,2.3,24.2,4.2,36,1.6
									c9-2,17.2-3.2,24.4-8.8C724,580.9,745.6,527,729.7,494.4z"/>
							</g>
						</g>
					</g>
				</g>
				<g>
					<g>
						<g>
							<g>
								<g>
									<g>
										<path class="st5" d="M648.9,425.9c1.2-4.1,3.2-7.6,7.5-7.8c3.8-0.2,5.7,3.1,9.5,3.5c2.8,0.3,7.3,0.3,9.9,1.3
											c4,1.5,5.6,4.5,6.3,8.6c0.9,4.9,1.1,10,0.8,14.9c-0.2,2.7-0.7,5.7-2.9,7.2c-2.8,2-6.8,0.6-9.1-1.8c-0.9-0.9-1.7-2-2.2-3.3
											c-0.6-1.4-0.8-2.9-1.3-4.3c-1-2.6-3.1-5-5.9-5.6c-3.6-0.8-9.7,3.5-12.2,0.7C646.4,436.4,647.7,429.7,648.9,425.9z"/>
									</g>
								</g>
							</g>
						</g>
					</g>
					<g>
						<g>
							<g>
								<g>
									<g>
										<path class="st14" d="M651,439.3v31.1c0,7.5,6.2,13.7,13.8,13.7h0c7.6,0,13.8-6.1,13.8-13.7v-31.1
											c0-7.5-6.2-13.7-13.8-13.7h0C657.2,425.6,651,431.7,651,439.3z"/>
									</g>
								</g>
							</g>
						</g>
					</g>
					<g>
						<g>
							<g>
								<g>
									<g>
										<path class="st5" d="M651,452.3v18.1l13.8-8C652.7,461.6,651.1,454.8,651,452.3z"/>
									</g>
								</g>
							</g>
						</g>
					</g>
					<g>
						<g>
							<g>
								<g>
									<g>
										<path class="st5" d="M671.8,448.7c2.5,1.4,5.8,0.6,7.3-1.9c1.5-2.5,0.6-5.7-1.9-7.2c-2.5-1.4-5.8-0.6-7.3,1.9
											C668.4,444,669.3,447.2,671.8,448.7z"/>
									</g>
								</g>
							</g>
						</g>
					</g>
					<g>
						<g>
							<g>
								<g>
									<g>
										<path class="st5" d="M651,432.2c0,0-1.5-1-1.5-1c7.4,0.6,14.4,1.2,16.4,0.9c1,8.7,5,8.4,9.2,9.7c3.9,1.2,7.9-0.6,7.2-5.5
											c-0.4-2.8-2.5-6.6-4.8-8.3c-3.7-2.9-8.1-5-12.7-5.5c-4.6-0.5-9.5,0.7-13.1,3.6C650.1,427.5,650.4,430.4,651,432.2z"/>
									</g>
								</g>
							</g>
						</g>
					</g>
					<g>
						<g>
							<g>
								<g>
									<g>
										<path class="st5" d="M676.6,454.8L676.6,454.8c2.6,0,4.7-2.1,4.7-4.6v-2.7c0-2.6-2.1-4.6-4.6-4.6h-0.1
											c-2.6,0-4.6,2.1-4.6,4.6v2.7C671.9,452.7,674,454.8,676.6,454.8z"/>
									</g>
								</g>
							</g>
						</g>
					</g>
					<g>
						<g>
							<g>
								<g>
									<g>
										<path class="st14" d="M670.6,448.2c2.5,1.4,5.8,0.6,7.3-1.9c1.5-2.5,0.6-5.7-1.9-7.2c-2.5-1.4-5.8-0.6-7.3,1.9
											C667.2,443.6,668.1,446.8,670.6,448.2z"/>
									</g>
								</g>
							</g>
						</g>
					</g>
					<g>
						<g>
							<g>
								<g>
									<g>
										<path class="st5" d="M665.9,432.2v4.9c0,1.6,1.4,3,3,3l0,0c1.7,0,3-1.3,3-3v-4.7L665.9,432.2z"/>
									</g>
								</g>
							</g>
						</g>
					</g>
				</g>
				<g>
					<g>
						<g>
							<g>
								<path class="st14" d="M710.1,531.3c-8.7,0.2-18.1,0.6-27.2-0.3c-18.5,39-65.7,54.6-107,49.6c-13.8-1.7-22.4-5.3-34.1-0.9
									c-5.4,3.6-10.6,7.2-15.6,11.2c-1,1.9-1.4,4-1,6.1c12.4,0.8,23.9-1.3,36.2-2.1c10.2-0.7,20.5,2.3,30.5,4.5
									c21.3,4.5,42.7,6,64.6,5.1c32.9-1.3,58.2-21.9,70.8-51.2c0.3-0.7,0.6-1.4,0.9-2.1c2-5.1,4.4-12.6,6.2-20.8
									C726.1,530.7,718.1,531.1,710.1,531.3z"/>
							</g>
						</g>
					</g>
				</g>
				<g>
					<g>
						<g>
							<g>
								<g>
									<polygon class="st5" points="541.2,594.6 518.8,519.8 461.5,519.8 487,600.3 593.1,600.8 591.4,594.6 									"/>
								</g>
							</g>
						</g>
					</g>
					<g>
						<g>
							<g>
								<g>
									<circle class="st12" cx="500.5" cy="563.4" r="2.3"/>
								</g>
							</g>
						</g>
					</g>
				</g>
			</g>
			<g id="XMLID_1_">
				<g>
					<g>
						<g>
							<g>
								<g>
									<g>
										<g>
											<g>
												<g>
													<g>
														<g>
															<g>
																<g>
																	<polygon class="st61" points="230.4,326.5 223.9,298.1 214.5,297.8 209.3,297.6 213.9,329.9 214.1,330.2 
																																			"/>
																</g>
															</g>
														</g>
													</g>
												</g>
											</g>
										</g>
									</g>
								</g>
							</g>
						</g>
					</g>
				</g>
				<g>
					<g>
						<g>
							<g>
								<path class="st28" d="M132.2,397.9c-0.7,2.4-1.4,5-0.8,7.4c0.5,2,2,3.7,3.4,5.2c10.7,11.2,25.1,18.2,39.9,22.5
									c4.6,1.3,9.6,2.4,14.2,1.1c4.6-1.3,8.7-5.8,8-10.6c-13.1-7.6-25.5-16.3-37.1-26.1c-4.5-3.8,71.8-75.9,25.8-78.7
									C153.5,316.7,138.4,376.7,132.2,397.9z"/>
							</g>
						</g>
					</g>
				</g>
				<g>
					<g>
						<g>
							<g>
								<rect x="138.6" y="762.6" class="st4" width="210.8" height="1.1"/>
							</g>
						</g>
					</g>
				</g>
				<g>
					<g>
						<g>
							<g>
								<g>
									<g>
										<g>
											<g>
												<g>
													<g>
														<g>
															<g>
																<g>
																	<path class="st61" d="M235.7,762.8h-49.3v-0.2c0-1.7-0.1-3.7-0.1-5.6v-0.5c0-2.1,0-4.3,0.1-6.1l-0.5-4.3
																		l-23.5-193.1l52.3-8.4l-1.3,195.1c0,0.1,3.1,2.5,7,5.4c3.2,2.4,6.9,5.2,9.8,7.5c1.4,1.1,2.6,2.4,3.5,3.9
																		c0.1,0.2,0.2,0.3,0.3,0.5c0.4,0.7,0.7,1.4,0.9,2.1c0.4,1.1,0.6,2.3,0.7,3.5C235.7,762.7,235.7,762.7,235.7,762.8z"
																		/>
																</g>
															</g>
														</g>
													</g>
												</g>
											</g>
										</g>
									</g>
								</g>
							</g>
						</g>
					</g>
				</g>
				<g>
					<g>
						<g>
							<g>
								<g>
									<g>
										<g>
											<g>
												<g>
													<g>
														<g>
															<g>
																<g>
																	<path class="st61" d="M272.9,762.8v-0.2c0-0.3,0-0.6,0-0.9c0-0.2,0-0.4,0-0.7c0-1.3,0-2.7,0-4.1v-0.5
																		c0-2.1,0-4.1,0.1-6v-0.2l-1.1-4.9L225,552.9l57.6-8.4l15.1,195.1c0,0.1,4,2.6,8.6,5.7c3.6,2.4,7.5,5.1,10.4,7.2
																		c1.4,1.1,2.6,2.4,3.5,3.9c0.1,0.2,0.2,0.3,0.3,0.5c0.5,1,0.9,2.1,1.2,3.2c0.2,0.8,0.3,1.6,0.4,2.4
																		c0,0.1,0,0.1,0,0.2H272.9z"/>
																</g>
															</g>
														</g>
													</g>
												</g>
											</g>
										</g>
									</g>
								</g>
							</g>
						</g>
					</g>
				</g>
				<g>
					<g>
						<g>
							<g>
								<g>
									<g>
										<g>
											<g>
												<g>
													<g>
														<g>
															<g>
																<g>
																	<path class="st61" d="M348.9,286.3c0.2-0.5,0.4-1,0.8-1.5c0.6-0.8,1.5-1.3,2.2-2c2.2-2,3.2-5,4.2-7.8
																		c0.3-0.8,0.5-1.6,0.4-2.4c-0.3-4.1-6.6-4.7-6.8-8.9c-0.3-3.9,5.1-6.7,7.5-8.9c0.3-0.3,0.1-0.8-0.3-0.8l-0.1,0
																		c-0.9,0.1-2.4,1.2-3.1,1.7c-4.5,3.5-8.5,8-11.7,12.8c-1,1.4-1.8,2.9-2.6,4.4c-3.3,6.1-4.1,13.3-6.1,19.8
																		c-0.6,2-1.3,4.1-1.9,6.2c-2.4,7.9-4.8,15.8-7.1,23.7c-1.4,5-2.8,14.4-4,19.4c-0.5,2.1-1.1,4.2-1.6,6.4
																		c-29-2.4-53-21.6-80.7-29.7c-5.5-1.6-14.9-4-20.8-1.4c-0.6,0.3-1.2,0.6-1.7,1c-4.3,3-5.4,10.5-4,14.9
																		c1.4,4.6,5,8.4,8.7,11.8c14.6,13.2,33.6,21,53,25.2c16.7,3.7,41.5,9.3,57.7,1.8c15.4-7.1,14-22.9,14.7-36.7
																		c0.4-7,0.4-18.6,1.1-25.8c0.6-6.5,0.8-13.2,1.4-19.7C348.4,288.5,348.5,287.4,348.9,286.3z"/>
																</g>
															</g>
														</g>
													</g>
													<g>
														<g>
															<g>
																<g>
																	<path class="st61" d="M321.9,344.2c0.1-0.3,0.1-0.5,0.2-0.8c0,0.2,0,0.4-0.1,0.6C322,344,321.9,344.1,321.9,344.2z
																		"/>
																</g>
															</g>
														</g>
													</g>
												</g>
											</g>
										</g>
									</g>
								</g>
							</g>
						</g>
					</g>
				</g>
				<g>
					<g>
						<g>
							<g>
								<g>
									<g>
										<g>
											<g>
												<g>
													<g>
														<g>
															<g>
																<g>
																	<g>
																		<path class="st28" d="M274,370.7l-0.7-0.2c-22.2-4.9-40.1-13.4-53.3-25.4c-3.3-3-7.3-7.1-8.9-12.1
																			c-1.5-4.8-0.2-12.3,4.2-15.4c0.5-0.4,1.1-0.7,1.8-1c5.9-2.5,14.9-0.4,21.2,1.4c11.1,3.3,21.8,8.4,32.1,13.3
																			c14.1,6.8,28.7,13.8,44.4,15.9c2,0.3,3.9-1,4.4-3c0,0,0,0,0,0c0.2-0.9,0.4-1.7,0.7-2.6c1.1-4.7,2.4-14,4-19.4
																			c2.2-7.6,4.5-15.3,7.1-23.7l0.2-0.6l0.6,0.4c3.3,1.9,6.7,4.4,10,6.7c1.8,1.3,3.6,2.6,5.4,3.8l0.2,0.2l0,0.3
																			c-0.4,4.5-0.6,9.2-0.7,13.7c-0.1,2.6-0.2,9.6-0.3,12.1c-0.1,1.6-0.1,3.3-0.2,4.9c-0.4,12.7-0.9,25.8-14.8,32.2
																			C315.2,379.8,290.4,374.4,274,370.7z"/>
																	</g>
																</g>
															</g>
														</g>
													</g>
												</g>
											</g>
										</g>
									</g>
								</g>
							</g>
						</g>
					</g>
				</g>
				<g>
					<g>
						<g>
							<g>
								<g>
									<g>
										<path class="st28" d="M261.8,363.6c0,6.8-1.7,13.5-3.6,20.1c-2.3,7.7-5,15.4-8,22.9c-0.2,0.5-0.5,1.1-1,1.4
											c-0.5,0.3-1.2,0.3-1.9,0.3c-21.3,0-38.6-1.2-59-1.5c-4.9-0.1-9-3.3-9.6-7.5c-2.4-17.3-6.8-33.9-2.1-59.7
											c1.1-5.7,1.3-11.8,5-16.5c11.1-14.1,35.1-9.7,49.2-2.5C248.5,329.8,261.8,345.1,261.8,363.6z"/>
									</g>
								</g>
							</g>
						</g>
					</g>
				</g>
				<g class="st30">
					<g>
						<g>
							<g>
								<g>
									<g>
										<path class="st17" d="M215.8,474.7h0.8c7.9,0,14.2-6.4,14.2-14.2v-23.5h-29.3v23.5C201.5,468.3,207.9,474.7,215.8,474.7z"
											/>
									</g>
								</g>
							</g>
						</g>
					</g>
				</g>
				<g class="st30">
					<g>
						<g>
							<g>
								<g>
									<g>
										<path class="st17" d="M178.1,436.2l-3.2,21.8c-0.8,5.8-6.5,10.2-13.3,11.1c0.2-2.1,0.4-4.1,0.6-6.1c1-8.2,2.6-16.3,5-24.2
											c0.4-1.1,0.7-2.3,1.1-3.5L178.1,436.2z"/>
									</g>
								</g>
							</g>
						</g>
					</g>
				</g>
				<g>
					<g>
						<g>
							<g>
								<g>
									<g>
										<g>
											<g>
												<g>
													<g>
														<g>
															<g>
																<g>
																	<path class="st8" d="M211,304.3l-0.2,0.1c-4.3,1-8.6-1.7-9.6-6l-1.3-5.5l8.1-1.9L211,304.3z"/>
																</g>
															</g>
														</g>
													</g>
												</g>
											</g>
										</g>
									</g>
								</g>
							</g>
						</g>
					</g>
				</g>
				<g>
					<g>
						<g>
							<g>
								<g>
									<g>
										<g>
											<g>
												<g>
													<g>
														<g>
															<g>
																<g>
																	<path class="st8" d="M210.1,295.7l0.5,2c0.3,1.3,0.8,2.5,1.5,3.6c2.4,4,7.1,6.4,12.1,6.3l-2.9-12.6l-8.4,0.1
																		L210.1,295.7z"/>
																</g>
															</g>
														</g>
													</g>
												</g>
											</g>
										</g>
									</g>
								</g>
							</g>
						</g>
					</g>
				</g>
				<g>
					<g>
						<g>
							<g>
								<g>
									<g>
										<g>
											<g>
												<g>
													<g>
														<g>
															<g>
																<g>
																	<path class="st61" d="M230,284.9c0.5,1.9,1,3.8,1.5,5.7c0.7,2.2,1.4,4.5,1.3,6.9c-0.3,5-4.8,9.5-9.8,9.6
																		c-6.7,0.2-13.8-3.6-17.1-9.6c-0.5-0.9-1.6-3.1-1.9-4.1c0,0,0,0,0-0.1c-2.1-6.8,0.7-14,7-17.2
																		c4.5-2.3,10.5-2.1,14.6,1.1C228,279,229.1,281.9,230,284.9z"/>
																</g>
															</g>
														</g>
													</g>
												</g>
											</g>
										</g>
									</g>
								</g>
							</g>
						</g>
					</g>
				</g>
				<g>
					<g>
						<g>
							<g>
								<g>
									<g>
										<g>
											<g>
												<g>
													<g>
														<g>
															<g>
																<g>
																	<path class="st8" d="M231.4,277.2c1.7-1.9,2.1-4.2-0.3-7.2c-0.4-0.6-1-1-1.7-1.1c-1-0.1-1.8,0.7-2.7,1.2
																		c-7.9,5.5-32.1-0.5-27.7,18.7c0,0,1.6,6.8,1.6,6.8l4.5-3.8c0.2,0.9,0.6,1.7,1,2.6c3.6,7.4,11.4-8.4,13.1-9.8
																		C221.6,282.5,228.4,280.5,231.4,277.2z"/>
																</g>
															</g>
														</g>
													</g>
												</g>
											</g>
										</g>
									</g>
								</g>
							</g>
						</g>
					</g>
				</g>
				<g>
					<g>
						<g>
							<g>
								<g>
									<g>
										<g>
											<g>
												<g>
													<g>
														<g>
															<g>
																<g>
																	
																		<ellipse transform="matrix(0.9745 -0.2242 0.2242 0.9745 -61.3605 53.993)" class="st8" cx="207" cy="297.2" rx="5.5" ry="5.2"/>
																</g>
															</g>
														</g>
													</g>
												</g>
											</g>
										</g>
									</g>
								</g>
							</g>
						</g>
					</g>
				</g>
				<g>
					<g>
						<g>
							<g>
								<g>
									<g>
										<g>
											<g>
												<g>
													<g>
														<g>
															<g>
																<g>
																	
																		<ellipse transform="matrix(0.9745 -0.2242 0.2242 0.9745 -60.9423 54.1825)" class="st61" cx="208.1" cy="295.4" rx="5.5" ry="5.2"/>
																</g>
															</g>
														</g>
													</g>
												</g>
											</g>
										</g>
									</g>
								</g>
							</g>
						</g>
					</g>
				</g>
				<g>
					<g>
						<g>
							<g>
								<g>
									<g>
										<path class="st8" d="M225.6,286.5c0.4,7.6-3.1,16.8-2.8,23.3c0.9,17.2-0.5,36.1-11.9,49c-7.7,8.6-21.4,13.2-31,6.9
											c-9-5.9-10.7-19-6.8-29c3.1-8.1,8.2-15.2,12.8-22.5c5.7-8.9,7.7-14.4,9.2-24.9c0.7-5.2,2.6-10.7,7-13.4
											c2.4-1.5,5.4-1.9,8.2-1.9c3.7,0,7.4,0.8,10.4,2.9C224.1,279.1,225.4,282.6,225.6,286.5z"/>
									</g>
								</g>
							</g>
						</g>
					</g>
				</g>
				<g>
					<g>
						<g>
							<g>
								<path class="st5" d="M178.9,397.1l71.7,3.9c0,0,37.7,108.4,48.1,212.8H161.2l-7.8-117.3c-1.7-20.1,1.3-40.3,8.7-59.2
									L178.9,397.1z"/>
							</g>
						</g>
					</g>
				</g>
				<g>
					<g>
						<g>
							<g>
								<g>
									<g>
										<g>
											<g>
												<g>
													<g>
														<g>
															<g>
																<g>
																	<path class="st5" d="M235.7,762.8h-49.3v-0.2c0-1.7-0.1-3.7-0.1-5.6v-0.5h47.5c0.1,0.2,0.2,0.3,0.3,0.5
																		c0.4,0.7,0.7,1.4,0.9,2.1c0.4,1.1,0.6,2.3,0.7,3.5C235.7,762.7,235.7,762.7,235.7,762.8z"/>
																</g>
															</g>
														</g>
													</g>
													<g>
														<g>
															<g>
																<g>
																	<path class="st5" d="M272.9,762.8v-0.2c0-0.3,0-0.6,0-0.9c0-1.5,0-3.1-0.1-4.7v-0.5h47.5c0.1,0.2,0.2,0.3,0.3,0.5
																		c0.5,1,0.9,2.1,1.2,3.2c0.2,0.8,0.3,1.6,0.4,2.4c0,0.1,0,0.1,0,0.2H272.9z"/>
																</g>
															</g>
														</g>
													</g>
												</g>
											</g>
										</g>
									</g>
								</g>
							</g>
						</g>
					</g>
				</g>
			</g>
			<g>
				<g>
					<g>
						<g>
							<rect x="475.8" y="762.6" class="st4" width="210.8" height="1.1"/>
						</g>
					</g>
				</g>
			</g>
		</g>
	</g>
	<g>
		<circle class="st1" cx="751.4" cy="316.9" r="4.1"/>
		<circle class="st1" cx="343.2" cy="694.7" r="7.2"/>
		<circle class="st1" cx="490.9" cy="165.5" r="7.2"/>
		<circle class="st1" cx="807.8" cy="622.9" r="7.2"/>
		<circle class="st1" cx="91" cy="528.3" r="7.2"/>
		<circle class="st1" cx="778.7" cy="391.4" r="5.2"/>
		<circle class="st1" cx="361.6" cy="714.1" r="2.7"/>
		<circle class="st1" cx="449.6" cy="193" r="2.7"/>
		<circle class="st1" cx="590.1" cy="133" r="2.7"/>
		<circle class="st1" cx="775.3" cy="582" r="2.7"/>
		<circle class="st1" cx="759.2" cy="389.5" r="2.7"/>
		<circle class="st1" cx="88.3" cy="585.3" r="2.7"/>
		<path class="st1" d="M97.8,634L97.8,634c-9.5-2.4-17-9.9-19.4-19.4h0c-2.4,9.5-9.9,17-19.4,19.4v0c9.5,2.4,17,9.9,19.4,19.4h0
			C80.8,643.8,88.3,636.4,97.8,634z"/>
		<path class="st1" d="M573.5,204.9L573.5,204.9c-4.3-1.1-7.6-4.4-8.7-8.7h0c-1.1,4.3-4.4,7.6-8.7,8.7v0c4.3,1.1,7.6,4.4,8.7,8.7h0
			C565.9,209.3,569.3,205.9,573.5,204.9z"/>
		<path class="st1" d="M398.5,668.8L398.5,668.8c-4.3-1.1-7.6-4.4-8.7-8.7h0c-1.1,4.3-4.4,7.6-8.7,8.7v0c4.3,1.1,7.6,4.4,8.7,8.7h0
			C390.9,673.3,394.3,669.9,398.5,668.8z"/>
		<path class="st1" d="M59,585.3L59,585.3c-4.3-1.1-7.6-4.4-8.7-8.7h0c-1.1,4.3-4.4,7.6-8.7,8.7v0c4.3,1.1,7.6,4.4,8.7,8.7h0
			C51.4,589.7,54.8,586.4,59,585.3z"/>
	</g>
</g>
</svg>
