<?xml version="1.0" encoding="utf-8"?>
<!-- Generator: Adobe Illustrator 24.1.0, SVG Export Plug-In . SVG Version: 6.00 Build 0)  -->
<svg version="1.1" id="Capa_1" xmlns="http://www.w3.org/2000/svg" xmlns:xlink="http://www.w3.org/1999/xlink" x="0px" y="0px"
	 viewBox="0 0 114 45" style="enable-background:new 0 0 114 45;" xml:space="preserve">
<style type="text/css">
	.st0{fill:#44ACE1;}
	.st1{fill:#404041;}
</style>
<g>
	<path class="st0" d="M35.35,13.17c-1.53-0.99-3.3-1.49-5.26-1.49c-0.99,0-1.95,0.16-2.86,0.46c-0.9,0.3-1.74,0.74-2.49,1.29
		c-0.56,0.41-1.07,0.88-1.53,1.39V4.63c0-0.48-0.18-0.92-0.52-1.28c-0.35-0.37-0.8-0.56-1.32-0.56c-0.55,0-1.02,0.19-1.36,0.56
		c-0.34,0.36-0.51,0.8-0.51,1.28v27.79c0,0.51,0.19,0.97,0.55,1.33c0.36,0.36,0.82,0.55,1.33,0.55c0.52,0,0.97-0.19,1.32-0.56
		c0.33-0.36,0.51-0.81,0.51-1.32v-0.8c0.45,0.49,0.96,0.92,1.5,1.31c0.75,0.54,1.6,0.97,2.51,1.29c0.92,0.32,1.9,0.48,2.92,0.48
		c1.91,0,3.66-0.52,5.2-1.53c1.53-1.01,2.75-2.41,3.64-4.16c0.89-1.74,1.33-3.72,1.33-5.88c0-2.21-0.45-4.2-1.34-5.91
		C38.09,15.51,36.87,14.15,35.35,13.17z M23.9,18.98c0.59-1.18,1.41-2.11,2.43-2.77c1.01-0.66,2.21-0.99,3.56-0.99
		c1.32,0,2.49,0.33,3.49,0.98c1.01,0.66,1.82,1.59,2.41,2.77c0.6,1.19,0.9,2.59,0.9,4.15c0,1.51-0.3,2.9-0.9,4.14
		c-0.59,1.22-1.41,2.2-2.42,2.9c-1,0.69-2.17,1.04-3.48,1.04c-1.35,0-2.54-0.34-3.55-1.02c-1.02-0.69-1.84-1.65-2.43-2.87
		c-0.6-1.23-0.9-2.64-0.9-4.18C23,21.57,23.31,20.17,23.9,18.98z"/>
	<path class="st1" d="M47.72,11.8c-0.52,0-0.98,0.19-1.32,0.56c-0.34,0.36-0.51,0.8-0.51,1.28v18.82c0,0.48,0.16,0.9,0.48,1.26
		c0.33,0.37,0.8,0.57,1.35,0.57c0.49,0,0.93-0.19,1.29-0.55c0.36-0.36,0.55-0.8,0.55-1.29V13.64c0-0.48-0.18-0.92-0.51-1.28
		C48.7,11.99,48.24,11.8,47.72,11.8z"/>
	<path class="st1" d="M57.41,2.8c-0.48,0-0.93,0.19-1.29,0.55c-0.36,0.36-0.55,0.8-0.55,1.29v27.83c0,0.48,0.18,0.92,0.51,1.27
		c0.34,0.37,0.8,0.56,1.32,0.56c0.49,0,0.93-0.19,1.29-0.55c0.36-0.36,0.55-0.8,0.55-1.29V4.63c0-0.48-0.18-0.92-0.51-1.28
		C58.38,2.99,57.93,2.8,57.41,2.8z"/>
	<path class="st1" d="M80.93,13.2c-1.65-1.01-3.53-1.52-5.6-1.52c-2.04,0-3.91,0.51-5.57,1.52c-1.65,1.01-2.98,2.39-3.94,4.11
		c-0.96,1.72-1.45,3.71-1.45,5.9c0,2.17,0.49,4.15,1.45,5.88c0.96,1.74,2.29,3.12,3.94,4.11c1.66,0.99,3.53,1.5,5.57,1.5
		c2.07,0,3.95-0.5,5.59-1.5c1.64-0.99,2.96-2.38,3.92-4.11c0.96-1.73,1.45-3.71,1.45-5.88c0-2.19-0.49-4.18-1.45-5.9
		C83.89,15.59,82.57,14.21,80.93,13.2z M75.34,31.2c-1.38,0-2.63-0.35-3.71-1.03c-1.09-0.69-1.97-1.64-2.61-2.83
		c-0.64-1.19-0.97-2.58-0.97-4.13c0-1.56,0.33-2.95,0.97-4.15c0.64-1.19,1.52-2.14,2.61-2.82c1.08-0.67,2.33-1.01,3.71-1.01
		c1.38,0,2.63,0.34,3.71,1.01c1.09,0.68,1.96,1.62,2.59,2.82c0.63,1.2,0.95,2.6,0.95,4.16c0,1.56-0.32,2.95-0.95,4.13
		c-0.63,1.18-1.5,2.13-2.59,2.82C77.96,30.85,76.72,31.2,75.34,31.2z"/>
	<path class="st1" d="M111.4,12.36c-0.35-0.37-0.8-0.56-1.32-0.56c-0.52,0-0.98,0.19-1.32,0.56c-0.34,0.36-0.51,0.81-0.51,1.32v1.2
		c-0.25-0.27-0.53-0.53-0.82-0.78c-0.82-0.71-1.79-1.29-2.89-1.74c-1.11-0.45-2.31-0.68-3.58-0.68c-1.99,0-3.81,0.51-5.4,1.5
		c-1.59,0.99-2.86,2.38-3.77,4.12c-0.91,1.73-1.38,3.7-1.38,5.87c0,2.19,0.46,4.17,1.38,5.89c0.92,1.72,2.19,3.11,3.77,4.11
		c1.59,1.01,3.42,1.53,5.44,1.53c0.92,0,1.86-0.14,2.79-0.41c0.93-0.28,1.81-0.69,2.62-1.22c0.69-0.45,1.3-1,1.84-1.64v0.54
		c0,2.12-0.61,3.78-1.88,5.08c-1.24,1.28-3.02,1.92-5.29,1.92c-0.64,0-1.27-0.06-1.87-0.17c-0.61-0.12-1.15-0.25-1.59-0.41
		c-0.48-0.16-0.84-0.29-1.05-0.36c-0.59-0.24-1.04-0.43-1.34-0.58c-0.51-0.24-1.01-0.23-1.54,0.15c-0.44,0.37-0.52,0.79-0.52,1.07
		c0.03,1.38,1.45,2.21,1.89,2.43c0.79,0.4,1.75,0.74,2.84,0.99c1.09,0.25,2.15,0.38,3.14,0.38c2.05,0,3.91-0.41,5.53-1.23
		c1.64-0.83,2.95-2.05,3.91-3.65c0.95-1.59,1.44-3.54,1.44-5.8V13.68C111.92,13.18,111.74,12.72,111.4,12.36z M104.89,30.19
		c-1.07,0.67-2.31,1.01-3.69,1.01c-1.35,0-2.59-0.35-3.67-1.03c-1.09-0.69-1.95-1.65-2.57-2.85c-0.62-1.22-0.94-2.61-0.94-4.14
		c0-1.53,0.32-2.92,0.94-4.12c0.61-1.19,1.48-2.14,2.56-2.81c1.08-0.67,2.32-1.01,3.67-1.01c1.38,0,2.62,0.33,3.69,0.99
		c1.08,0.66,1.94,1.6,2.57,2.78c0.63,1.19,0.95,2.59,0.95,4.18c0,1.58-0.32,3-0.95,4.2C106.83,28.56,105.97,29.51,104.89,30.19z"/>
	<path class="st1" d="M14.85,8.17c-0.36-0.36-0.8-0.55-1.29-0.55h-2.99V4.63c0-0.2-0.04-0.4-0.11-0.59
		c-0.01-0.04-0.02-0.07-0.03-0.11c0,0,0,0,0-0.01c-0.09-0.21-0.21-0.4-0.38-0.58c-0.32-0.34-0.73-0.52-1.2-0.55
		c-0.04,0-0.07-0.01-0.11-0.01c0,0,0,0,0,0c0,0,0,0,0,0c-0.04,0-0.07,0.01-0.11,0.01c-0.47,0.03-0.89,0.21-1.2,0.55
		C7.26,3.53,7.13,3.73,7.05,3.93c0,0,0,0,0,0.01C7.03,3.97,7.02,4.01,7.01,4.05C6.94,4.23,6.9,4.43,6.9,4.63v2.99H3.92
		c-0.49,0-0.93,0.19-1.29,0.55c-0.36,0.36-0.55,0.8-0.55,1.29c0,0.52,0.19,0.98,0.56,1.32c0.36,0.34,0.8,0.51,1.28,0.51H6.9v2.99
		c0,0.48,0.17,0.91,0.51,1.28c0.35,0.37,0.8,0.56,1.32,0.56c0,0,0,0,0,0c0,0,0,0,0,0c0.52,0,0.98-0.19,1.32-0.56
		c0.34-0.36,0.51-0.79,0.51-1.28v-2.99h2.99c0.48,0,0.92-0.18,1.28-0.51c0.37-0.34,0.56-0.8,0.56-1.32
		C15.4,8.97,15.21,8.53,14.85,8.17z"/>
</g>
</svg>
